<svg width="53" height="52" viewBox="0 0 53 52" fill="none" xmlns="http://www.w3.org/2000/svg">
<path fill-rule="evenodd" clip-rule="evenodd" d="M26.4999 0C11.8645 0 0 11.6405 0 25.9999C0 40.3592 11.8645 52 26.4999 52C41.1356 52 53 40.3594 53 25.9999C53 11.6405 41.1356 0 26.4999 0ZM26.4999 46.8C14.8103 46.8 5.30004 37.4691 5.30004 25.9999C5.30004 14.5308 14.8102 5.20004 26.4999 5.20004C38.1898 5.20004 47.7 14.5308 47.7 25.9999C47.7 37.4691 38.1898 46.8 26.4999 46.8ZM29.8183 15.6C29.8183 17.4851 28.4194 18.85 26.5269 18.85C24.5579 18.85 23.1932 17.485 23.1932 15.5639C23.1932 13.7175 24.5948 12.3501 26.5269 12.3501C28.4194 12.3501 29.8183 13.7175 29.8183 15.6ZM23.8558 23.4H29.1557V39H23.8558V23.4Z" fill="#ECD5AF"/>
</svg>
