<svg width="48" height="48" viewBox="0 0 48 48" fill="none" xmlns="http://www.w3.org/2000/svg">
<path d="M34.9682 39.1393L25.5244 33.9131C29.0343 31.1543 29.9876 25.7327 29.9876 22.6929V16.3653C29.9876 12.1755 24.4152 7.50906 18.818 7.50906C13.2223 7.50906 7.50218 12.1762 7.50218 16.3653V22.6929C7.50218 25.4569 8.67286 31.0487 12.2189 33.8891L2.53121 39.1392C2.53121 39.1392 0 40.2661 0 41.671V45.4682C0 46.8656 1.13544 48 2.53121 48H34.9682C36.3654 48 37.5009 46.8656 37.5009 45.4682V41.671C37.5009 40.1815 34.9682 39.1393 34.9682 39.1393L34.9682 39.1393ZM34.501 45.003H3.00005V42.3237C3.21529 42.1671 3.51604 41.9858 3.75304 41.8771C3.82349 41.8449 3.89399 41.8112 3.96074 41.773L13.6491 36.5236C14.5326 36.0449 15.1183 35.157 15.2076 34.1575C15.2968 33.158 14.8791 32.1787 14.0961 31.5508C11.5806 29.536 10.5029 25.0734 10.5029 22.693V16.3655C10.5029 14.2129 14.5648 10.5063 18.8188 10.5063C23.1514 10.5063 26.9884 14.1619 26.9884 16.3655V22.693C26.9884 25.0404 26.2586 29.5225 23.6704 31.5568C23.2803 31.8637 22.9724 32.2624 22.7742 32.7173C22.5761 33.1722 22.4939 33.6691 22.5349 34.1635C22.5767 34.6576 22.7403 35.1337 23.0113 35.5492C23.2822 35.9648 23.6519 36.3068 24.0874 36.5447L33.5313 41.7708C33.6146 41.8164 33.7203 41.8659 33.8081 41.9041C34.0293 41.9978 34.3015 42.1543 34.501 42.2923V45.003ZM45.4666 31.6774L35.8825 26.4513C39.3924 23.6925 40.4867 18.2708 40.4867 15.231V8.90349C40.4867 4.71361 34.774 0 29.1768 0C25.5394 0 21.8203 1.9758 19.6557 4.50611C20.8903 4.58249 22.2515 4.58403 23.4275 4.95867C25.0077 3.72913 27.0072 2.99785 29.1769 2.99785C33.5095 2.99785 37.4867 6.6999 37.4867 8.90428V15.2318C37.4867 17.5792 36.6167 22.0613 34.0285 24.0956C33.6384 24.4025 33.3305 24.8012 33.1323 25.2561C32.9342 25.711 32.852 26.2079 32.893 26.7023C32.9348 27.1964 33.0984 27.6725 33.3694 28.088C33.6403 28.5035 34.01 28.8455 34.4455 29.0834L44.0297 34.3095C44.1129 34.3552 44.2187 34.4047 44.3064 34.4429C44.5277 34.5365 44.7998 34.6931 44.9993 34.831V37.4961H38.9439C39.8582 38.1855 40.1349 39.1715 40.4897 40.4932H45.4674C46.8646 40.4932 48 39.3588 48 37.9614V34.2106C47.9993 32.7195 45.4666 31.6773 45.4666 31.6773L45.4666 31.6774Z" fill="#ECD5AF"/>
</svg>
