<svg width="55" height="38" viewBox="0 0 55 38" fill="none" xmlns="http://www.w3.org/2000/svg">
<path fill-rule="evenodd" clip-rule="evenodd" d="M11.2785 0.46981C12.5729 0.0552718 13.8877 0 14.9748 0H16.5403C19.1827 0 21.7586 0.736957 23.915 2.11184L25.1991 2.9294C25.8725 3.35766 26.6768 3.58759 27.5013 3.58759C28.3258 3.58759 29.13 3.35766 29.8035 2.9294L31.0876 2.11184C33.2446 0.739163 35.8208 0.00143698 38.4623 0H40.0278C41.1175 0 42.4323 0.0552718 43.724 0.46981C47.4152 1.64894 50.3339 4.35726 52.2575 8.73985C54.1606 13.0787 55.1378 19.1494 54.9843 27.325C54.9511 29.0522 54.7132 30.9867 53.9739 32.7278C53.2295 34.4942 51.9224 36.1593 49.7276 37.1035C48.3579 37.6954 46.8575 38.0017 45.3381 37.9994C43.5774 38.0186 41.8495 37.57 40.3705 36.7097C39.1632 35.9958 38.1067 35.0746 37.2037 34.2869L36.8789 34.006C35.8454 33.1078 34.9732 32.41 34.0062 31.9563C32.7863 31.3879 31.4329 31.0909 30.0593 31.0904H24.9433C23.5686 31.0913 22.2142 31.389 20.9938 31.9586C20.0268 32.41 19.1546 33.1101 18.1211 34.0083L17.7963 34.2892C16.8933 35.0746 15.8369 35.9981 14.6295 36.712C13.1502 37.5715 11.4223 38.0193 9.66187 37.9994C8.14229 38.0009 6.6419 37.6939 5.27236 37.1012C3.07504 36.157 1.77047 34.4942 1.0261 32.7278C0.286837 30.9867 0.0489442 29.0522 0.0156903 27.325C-0.137789 19.1494 0.839363 13.0787 2.74251 8.73985C4.66611 4.35726 7.58734 1.64664 11.2785 0.46981ZM14.9748 3.45449C13.9925 3.45449 13.2175 3.51667 12.5626 3.72394C10.1581 4.49314 7.93522 6.3148 6.31346 10.0111C4.67379 13.7489 3.70431 19.306 3.85523 27.2674C3.88337 28.792 4.09824 30.2797 4.6124 31.498C5.11888 32.6956 5.86581 33.5293 6.92993 33.9852C7.78248 34.3561 8.71758 34.5475 9.66442 34.5449C10.905 34.5449 11.8336 34.2317 12.5294 33.8217C13.4119 33.299 14.1997 32.6173 15.1436 31.7951L15.4608 31.5187C16.4866 30.6298 17.7119 29.598 19.2287 28.8933C20.9952 28.0683 22.9558 27.637 24.9459 27.6359H30.0593C32.0494 27.6359 34.0088 28.0666 35.7764 28.891C37.2907 29.598 38.5185 30.6298 39.5443 31.5164L39.8615 31.7928C40.8079 32.6173 41.5932 33.299 42.4783 33.8194C43.1715 34.2317 44.1001 34.5449 45.3433 34.5449C46.3844 34.5449 47.2924 34.3238 48.0752 33.9875C49.1393 33.5269 49.8862 32.6956 50.3927 31.5003C50.9069 30.2797 51.1217 28.792 51.1499 27.2674C51.2983 19.306 50.3313 13.7489 48.6917 10.0088C47.0699 6.3148 44.847 4.49314 42.4425 3.72394C41.7876 3.51667 41.01 3.45449 40.0303 3.45449H38.4648C36.618 3.45449 34.8146 3.97036 33.3054 4.9307L32.0212 5.75057C30.7 6.59124 29.1218 7.04262 27.5038 7.04262C25.8859 7.04262 24.3077 6.59124 22.9864 5.75057L21.7023 4.9307C20.1929 3.97106 18.3907 3.45541 16.5429 3.45449H14.9748ZM15.9903 11.515C16.4991 11.515 16.9871 11.6969 17.3469 12.0209C17.7067 12.3448 17.9088 12.7841 17.9088 13.2422V14.9694H19.8273C20.3361 14.9694 20.8241 15.1514 21.1839 15.4753C21.5437 15.7993 21.7458 16.2386 21.7458 16.6967C21.7458 17.1548 21.5437 17.5941 21.1839 17.918C20.8241 18.242 20.3361 18.4239 19.8273 18.4239H17.9088V20.1512C17.9088 20.6093 17.7067 21.0486 17.3469 21.3725C16.9871 21.6964 16.4991 21.8784 15.9903 21.8784C15.4815 21.8784 14.9935 21.6964 14.6338 21.3725C14.274 21.0486 14.0718 20.6093 14.0718 20.1512V18.4239H12.1533C11.6445 18.4239 11.1566 18.242 10.7968 17.918C10.437 17.5941 10.2349 17.1548 10.2349 16.6967C10.2349 16.2386 10.437 15.7993 10.7968 15.4753C11.1566 15.1514 11.6445 14.9694 12.1533 14.9694H14.0718V13.2422C14.0718 12.7841 14.274 12.3448 14.6338 12.0209C14.9935 11.6969 15.4815 11.515 15.9903 11.515Z" fill="#ECD5AF"/>
<path d="M45 16.5C45 16.9862 44.8068 17.4525 44.463 17.7964C44.1192 18.1402 43.6529 18.3333 43.1667 18.3333C42.6804 18.3333 42.2141 18.1402 41.8703 17.7964C41.5265 17.4525 41.3333 16.9862 41.3333 16.5C41.3333 16.0138 41.5265 15.5475 41.8703 15.2036C42.2141 14.8598 42.6804 14.6667 43.1667 14.6667C43.6529 14.6667 44.1192 14.8598 44.463 15.2036C44.8068 15.5475 45 16.0138 45 16.5ZM37.6667 16.5C37.6667 16.9862 37.4735 17.4525 37.1297 17.7964C36.7859 18.1402 36.3196 18.3333 35.8333 18.3333C35.3471 18.3333 34.8808 18.1402 34.537 17.7964C34.1932 17.4525 34 16.9862 34 16.5C34 16.0138 34.1932 15.5475 34.537 15.2036C34.8808 14.8598 35.3471 14.6667 35.8333 14.6667C36.3196 14.6667 36.7859 14.8598 37.1297 15.2036C37.4735 15.5475 37.6667 16.0138 37.6667 16.5ZM39.5 11C39.9862 11 40.4525 11.1932 40.7964 11.537C41.1402 11.8808 41.3333 12.3471 41.3333 12.8333C41.3333 13.3196 41.1402 13.7859 40.7964 14.1297C40.4525 14.4735 39.9862 14.6667 39.5 14.6667C39.0138 14.6667 38.5475 14.4735 38.2036 14.1297C37.8598 13.7859 37.6667 13.3196 37.6667 12.8333C37.6667 12.3471 37.8598 11.8808 38.2036 11.537C38.5475 11.1932 39.0138 11 39.5 11ZM39.5 18.3333C39.7408 18.3333 39.9792 18.3808 40.2016 18.4729C40.424 18.565 40.6261 18.7001 40.7964 18.8703C40.9666 19.0405 41.1016 19.2426 41.1938 19.4651C41.2859 19.6875 41.3333 19.9259 41.3333 20.1667C41.3333 20.4074 41.2859 20.6458 41.1938 20.8683C41.1016 21.0907 40.9666 21.2928 40.7964 21.463C40.6261 21.6333 40.424 21.7683 40.2016 21.8604C39.9792 21.9526 39.7408 22 39.5 22C39.0138 22 38.5475 21.8068 38.2036 21.463C37.8598 21.1192 37.6667 20.6529 37.6667 20.1667C37.6667 19.6804 37.8598 19.2141 38.2036 18.8703C38.5475 18.5265 39.0138 18.3333 39.5 18.3333Z" fill="#ECD5AF"/>
</svg>
